<?xml version="1.0" encoding="utf-8"?>
<!-- Generator: Adobe Illustrator 25.4.1, SVG Export Plug-In . SVG Version: 6.00 Build 0)  -->
<svg version="1.1" id="Calque_1" xmlns="http://www.w3.org/2000/svg" xmlns:xlink="http://www.w3.org/1999/xlink" x="0px" y="0px"
	 viewBox="0 0 841.9 595.3" style="enable-background:new 0 0 841.9 595.3;" xml:space="preserve">
<style type="text/css">
	.st0{fill:#4D302E;}
	.st1{fill:#734744;}
	.st2{fill:#784A46;}
	.st3{fill:#563331;}
	.st4{fill:#A66456;}
	.st5{fill:url(#SVGID_1_);}
	.st6{fill:#482F2F;}
	.st7{fill:#F62602;}
	.st8{fill:#FE822B;}
	.st9{fill:#E3FECF;}
	.st10{fill:#3B1A07;}
	.st11{fill:#EDF7C6;}
	.st12{fill:url(#SVGID_00000031929947806307088130000001203013013144019901_);}
	.st13{fill:#E74D29;}
	.st14{fill:#CB1401;}
	.st15{fill:#487030;}
	.st16{fill:url(#SVGID_00000183959798002762920520000008779980501104508826_);}
	.st17{fill:#46712C;}
	.st18{fill:#78A733;}
	.st19{fill:#4C6924;}
	.st20{fill:#330A0A;}
	.st21{fill:#BAEA34;}
</style>
<g>
	<path class="st0" d="M468.7,429.1C468.7,429.1,468.7,429.1,468.7,429.1c-8,1.3-11.7-20.2-12.7-27.4c-0.2-1.4-0.3-2.3-0.3-2.3
		l15.1-7.8C470.8,391.6,478.2,427.4,468.7,429.1z"/>
	<path class="st1" d="M469.1,428.6c-0.1,0.2-0.2,0.3-0.4,0.5c0,0,0,0,0,0c-7.9,1.3-11.7-20.3-12.7-27.5c1.5-0.4,3.1-0.2,4.8,0.8
		c5.6,3.6,9.5,10,10.2,16.6C471.4,422.4,471,425.9,469.1,428.6z"/>
	<path d="M468,429.6c-1,0-2-0.3-2.9-1c-5.7-4.2-8.5-20.2-9.4-26.8c-0.2-1.4-0.3-2.3-0.3-2.3l0-0.3l15.9-8.1l0.1,0.5
		c0.2,1.2,5.7,28.3,0.5,36c-0.7,1.1-1.7,1.8-2.8,2l0,0l-0.2,0C468.5,429.6,468.2,429.6,468,429.6z M456.1,399.6c0,0.4,0.1,1.1,0.3,2
		c0.7,5.1,3.5,22.2,9.1,26.3c1,0.7,1.9,1,3,0.8l0,0l0.1,0c0.9-0.2,1.7-0.7,2.4-1.7c4.7-6.8,0.3-31-0.5-34.9L456.1,399.6z"/>
	<g>
		<g>
			<path class="st2" d="M546.5,297.7c0,0,9.4-48.8-23-68.1c-2.4-1.5-5.1-2.7-8.1-3.8c0,0,12.4-8.2,23.8-11.3
				c4.7-1.3,9.2-1.7,12.6-0.4c1,0.4,1.8,0.9,2.6,1.5c3.7,3.3,3.7,9.4,2.3,15.9c-1.3,6-3.9,12.2-6,16.8c0,0,12.8,9.8,13.8,26.3
				C565.5,291.1,546.5,297.7,546.5,297.7z"/>
			<path d="M546,298.3l0.1-0.7c0.1-0.5,9-48.7-22.8-67.6c-2.4-1.5-5.1-2.7-8-3.8l-0.8-0.3l0.7-0.4c0.1-0.1,12.6-8.2,23.9-11.3
				c5.4-1.5,9.7-1.6,12.9-0.4c1,0.4,1.9,0.9,2.7,1.6c3.4,2.9,4.2,8.4,2.4,16.3c-1.3,6.1-3.9,12.3-5.9,16.6
				c1.8,1.5,12.8,11.2,13.7,26.4c1,16.6-18.1,23.4-18.3,23.5L546,298.3z M516.3,225.7c2.6,1,5.1,2.2,7.4,3.6
				c30.2,17.9,24.3,61.7,23.4,67.8c1.4-0.6,5.1-2.2,8.6-5c6-4.8,8.9-10.7,8.4-17.3c-1-16.1-13.5-25.9-13.6-26l-0.3-0.2l0.1-0.3
				c2-4.2,4.6-10.5,6-16.7c1.7-7.6,0.9-12.8-2.2-15.6c-0.7-0.6-1.5-1.1-2.5-1.5c-3-1.2-7.1-1-12.4,0.4
				C529.6,217.6,519.1,224,516.3,225.7z"/>
		</g>
		<path class="st3" d="M556.7,231.6c-2.6-4.2-7.6-10.9-14.1-15.2c-1.1-0.7-2.2-1.3-3.3-1.9c4.7-1.3,9.2-1.7,12.6-0.4
			c1,0.4,1.8,0.9,2.6,1.5C558.1,219,558.2,225.1,556.7,231.6z"/>
		<path class="st4" d="M551.8,214.2c-3,0.1-6.2,1-9.3,2.3c-8.2,3.5-15.8,10.2-19.1,13.2c-2.4-1.5-5.1-2.7-8.1-3.8
			c0,0,12.4-8.2,23.8-11.3C543.9,213.3,548.4,212.8,551.8,214.2z"/>
	</g>
	<g>
		<linearGradient id="SVGID_1_" gradientUnits="userSpaceOnUse" x1="525.8824" y1="226.7127" x2="548.5068" y2="292.0718">
			<stop  offset="8.478655e-02" style="stop-color:#487030"/>
			<stop  offset="0.9054" style="stop-color:#547F33"/>
		</linearGradient>
		<path class="st5" d="M507.2,223c0,0,31.1-2.3,45.6,31.4s-7.6,51.4-7.6,51.4h-3.5L507.2,223z"/>
		<path d="M545.3,306.2h-4l-34.7-83.5l0.6,0c0.3,0,31.6-1.9,46,31.6c7.5,17.5,5,30.7,1.6,38.6c-3.7,8.6-9.1,13-9.3,13.2L545.3,306.2
			z M541.9,305.4h3.1c1.6-1.4,21-19,7.4-50.8c-7.4-17.3-19.3-24.8-28-28.1c-7.9-3-14.7-3.1-16.6-3.1L541.9,305.4z"/>
	</g>
	<g>
		<g>
			<path class="st2" d="M556,355.4c0,0,0,0.1,0,0.1c-0.7,12.4-52.2,4.1-52.2,4.1l5-5.7l22-25l4.9-5.5c0,0,19.6,18.3,20.3,30.9
				C556,354.8,556,355.1,556,355.4z"/>
			<path d="M535,362.9c-14.1,0-30.3-2.6-31.3-2.7L503,360l32.7-37.1l0.3,0.3c0.8,0.8,19.8,18.6,20.4,31.2c0,0.4,0,0.7,0,1
				c0,0.1,0,0.1,0,0.2c-0.1,1.4-0.8,2.6-2,3.6C551,362,543.3,362.9,535,362.9z M504.6,359.4c5.5,0.8,41,5.9,49.3-0.9
				c1.1-0.9,1.6-1.8,1.7-3l0-0.1l0,0c0-0.3,0-0.6,0-0.9c-0.6-11.5-17.4-28-19.9-30.4L504.6,359.4z"/>
		</g>
		<path class="st6" d="M556,355.4c0,0,0,0.1,0,0.1l-47.2-1.6l22-25l25.2,25.4C556,354.8,556,355.1,556,355.4z"/>
	</g>
	<path class="st7" d="M541.3,313.3c-0.6,4.1-1.6,8.1-3,12.1c-0.7,1.9-1.4,3.9-2.2,5.9c-16.6,39.9-62.3,82.2-133.8,82.2
		c-42.2,0-82.9-14.9-108.9-41.4c-10.3-10.5-18.3-22.8-23.1-36.7c0,0,0-0.1,0-0.1c-0.2-0.7-0.5-1.3-0.7-2c-3-9.2-4.6-19.2-4.6-29.7
		c0-5.4,0.4-10.7,1.1-15.9c4.1-31.2,20.4-59.3,44.4-79.3c9.6-8,20.6-14.7,32.5-19.8c0,0,1.2-0.6,3.5-1.4c15.5-6.1,32.6-9.5,50.7-9.5
		c49.1,0,83.9,22.1,102,37.3c9.5,8,14.5,14.1,14.5,14.1C522.4,238.4,547.2,275.7,541.3,313.3z"/>
	<g>
		<path class="st0" d="M356.1,400.2c0,0,1.7,7,1.3,17.9c-0.4,11,7.8,16,17.7-9.9L356.1,400.2z"/>
		<path d="M361.7,427.5c-0.2,0-0.5,0-0.7-0.1c-2.7-0.5-4.2-4.2-4-9.3c0.4-10.8-1.3-17.8-1.3-17.8l-0.2-0.8l20.1,8.5l-0.1,0.4
			C370.8,420.6,365.8,427.5,361.7,427.5z M356.7,400.9c0.4,2.1,1.5,8.4,1.1,17.3c-0.2,4.6,1.2,8,3.4,8.5c1.4,0.3,6.4-0.2,13.4-18.2
			L356.7,400.9z"/>
	</g>
	<path class="st8" d="M455.7,266.6c-6.4,32.8-36,33.9-65.3,34.7c-28.4,0.8-110.6,0.8-124.3-13.7c4.1-31.2,20.4-59.3,44.4-79.3
		c14.1-5.9,34.7-11.1,62.5-10.1C433.5,200.1,462.1,233.8,455.7,266.6z"/>
	<ellipse transform="matrix(0.866 -0.5 0.5 0.866 -66.5376 187.5927)" class="st9" cx="316.8" cy="218" rx="21.5" ry="7"/>
	
		<ellipse transform="matrix(0.4735 -0.8808 0.8808 0.4735 14.4648 490.6552)" class="st9" cx="417.6" cy="233.2" rx="14.6" ry="20.4"/>
	<path class="st10" d="M284.8,290.2c0,0-0.8-34.1,13.5-34.7s0.1,35.8,0.1,35.8c-2.3,0-4.5-1.2-6.8-1.5
		C289.5,289.4,287.1,290.2,284.8,290.2z"/>
	<path class="st10" d="M370.6,295.5c0,0,13.7-34.5-5.6-36c-21.4-1.7-15.8,34.7-15.8,34.7C356.5,294.2,363.8,293.3,370.6,295.5z"/>
	<circle class="st11" cx="358.9" cy="270.3" r="3.7"/>
	<circle class="st11" cx="294.1" cy="265.8" r="3.7"/>
	<g>
		<path class="st10" d="M346.3,294.7c4.7-1.7,9.8-2.2,14.8-1.9c2.5,0.2,5,0.6,7.4,1.3c2.4,0.6,4.7,1.8,6.9,3.1
			c-2.4-0.7-4.7-1.4-7.2-1.8c-2.4-0.4-4.8-0.8-7.2-0.9c-2.4-0.2-4.9-0.2-7.3-0.1C351.2,294.3,348.7,294.4,346.3,294.7z"/>
		<path class="st10" d="M378.3,298.4l-3.3-1c-2.4-0.7-4.6-1.3-6.9-1.8c-2.8-0.5-5.1-0.8-7.2-0.9c-2.2-0.2-4.6-0.2-7.3-0.1
			c-2.2,0.1-4.7,0.2-7.4,0.5l-3.2,0.3l3.1-1.1c4.4-1.6,9.5-2.3,15-2c2.6,0.2,5.1,0.6,7.5,1.3c2.2,0.6,4.4,1.6,6.9,3.1L378.3,298.4z
			 M355.8,293.8c1.8,0,3.5,0.1,5.2,0.2c2.1,0.1,4.5,0.4,7.3,0.9c1.2,0.2,2.3,0.5,3.5,0.8c-1.2-0.5-2.3-0.9-3.4-1.2
			c-2.4-0.7-4.9-1.1-7.4-1.3c-3.9-0.2-7.6,0-11,0.8c1.3-0.1,2.5-0.1,3.5-0.2C354.4,293.8,355.1,293.8,355.8,293.8z"/>
	</g>
	<g>
		<path class="st10" d="M302,292.2c-3.3-0.5-6.5-1.2-9.7-1.6c-1.6-0.2-3.2-0.3-4.8-0.3c-1.6,0-3.2,0.2-4.7,0.8c1.2-1.2,3-1.8,4.6-2
			c1.7-0.3,3.4-0.2,5.1,0c1.7,0.2,3.3,0.6,4.9,1.1C299,290.7,300.5,291.3,302,292.2z"/>
		<path class="st10" d="M303.9,292.9l-2-0.3c-1.4-0.2-2.7-0.4-4-0.7c-1.9-0.3-3.8-0.7-5.7-0.9c-1.7-0.2-3.2-0.3-4.7-0.3
			c-1.4,0-3,0.1-4.6,0.8l-1.8,0.7l1.4-1.4c1.1-1.1,2.8-1.8,4.9-2.1c1.5-0.3,3.2-0.3,5.2,0c1.8,0.3,3.5,0.6,5,1.1
			c1.9,0.6,3.3,1.3,4.7,2.1L303.9,292.9z M287.8,289.9c1.4,0,3,0.1,4.5,0.3c1.9,0.2,3.8,0.6,5.7,0.9c0.5,0.1,1,0.2,1.5,0.3
			c-0.7-0.3-1.4-0.6-2.3-0.9c-1.5-0.5-3-0.9-4.8-1.1c-1.9-0.2-3.5-0.2-5,0c-0.9,0.1-1.7,0.3-2.4,0.6c0.8-0.1,1.7-0.2,2.4-0.2
			C287.6,289.9,287.7,289.9,287.8,289.9z"/>
	</g>
	
		<linearGradient id="SVGID_00000183936689630821029980000007073873169124565137_" gradientUnits="userSpaceOnUse" x1="294.5951" y1="314.4998" x2="542.1907" y2="314.4998">
		<stop  offset="5.699973e-02" style="stop-color:#B71406"/>
		<stop  offset="0.9168" style="stop-color:#B71406"/>
	</linearGradient>
	<path style="fill:url(#SVGID_00000183936689630821029980000007073873169124565137_);" d="M541.3,313.3c-0.6,4.1-1.6,8.1-3,12.1
		c-0.7,1.9-1.4,3.9-2.2,5.9c-19.8,48-71.4,77.9-122.1,82.2c-43,3.7-87.2-11.1-119.4-39.8c3.7,3.3,21,2.2,26.2,2.6
		c8.9,0.6,17.8,0.6,26.8,0.5c20-0.2,40-1.6,59.9-4c39-4.8,86.5-16.9,98.2-59.9c11.2-41.5-1.2-83.4-6.4-97.9
		c9.5,8,14.5,14.1,14.5,14.1C522.4,238.4,547.2,275.7,541.3,313.3z"/>
	<path class="st13" d="M536,331.3c-16.6,39.9-62.3,82.2-133.8,82.2c-59,0-115-29.1-132-78.1l1.4-0.5l6.8,1.9
		c0,0,26.9,78.8,122.5,71.8c95.6-7,121.2-60.5,124.8-73.8C527,330.1,531.2,329.8,536,331.3z"/>
	<path d="M459.5,329.4c-54.1,10.9-94.5,14.1-123.3,14.1c-11.4,0-21-0.5-28.8-1.2c-19-1.7-30.9-4.9-37.1-7c-0.2-0.7-0.5-1.3-0.7-2
		c14.6,5.2,68.8,18.9,189.7-5.4L459.5,329.4z"/>
	<path d="M313.8,234.2c-1.2-0.2-2.8-0.2-4.2,0c-1.4,0.2-2.8,0.6-4.2,1.1c-1.3,0.5-2.6,1.3-3.8,2.2c-1.2,0.9-2.2,2-3.1,3.2l0,0.1
		c-0.3,0.4-0.8,0.4-1.2,0.1c-0.3-0.3-0.4-0.7-0.2-1.1c0.9-1.4,1.8-2.8,3-4c1.2-1.2,2.6-2.2,4.1-3.1c1.5-0.8,3.1-1.5,4.8-1.9
		c1.7-0.4,3.3-0.7,5.3-0.6c1.1,0,2,0.9,2,2.1c0,1.1-0.9,2-2.1,2c-0.1,0-0.2,0-0.3,0L313.8,234.2z"/>
	<path d="M366.6,232.6c2,0,3.6,0.2,5.3,0.6c1.7,0.4,3.3,1.1,4.8,1.9c1.5,0.8,2.9,1.9,4.1,3.1c1.2,1.2,2.2,2.6,3,4
		c0.2,0.4,0.1,0.9-0.3,1.2c-0.4,0.2-0.8,0.1-1.1-0.2l0-0.1c-1-1.2-2-2.3-3.1-3.2c-1.2-0.9-2.4-1.6-3.8-2.2c-1.3-0.5-2.8-0.9-4.2-1.1
		c-1.4-0.2-3-0.2-4.2,0l-0.1,0c-1.1,0.2-2.1-0.6-2.3-1.7c-0.2-1.1,0.6-2.1,1.7-2.3C366.4,232.6,366.5,232.6,366.6,232.6z"/>
	<path class="st10" d="M306.6,322.4c2,1.1,6.2,3.1,11.8,3.2c6.3,0.1,10.9-2.1,12.9-3.2c-1.5,5.5-6.6,9.4-12.4,9.4
		C313.2,331.7,308.1,327.9,306.6,322.4z"/>
	<path class="st14" d="M423.4,185.7c-0.3,1.9-1.5,3.9-3.3,4.5c-1.2,0.5-2.6,0.3-3.8-0.1c-1.2-0.4-2.4-1.1-3.5-1.7
		c-9.1-4.9-20-6.4-30.1-4.1c-1.2,0.3-2.6,0.5-3.5-0.4c-0.6-0.6-0.6-1.6-0.6-2.5c0-0.4-0.1-0.9-0.3-1.3c-0.2-0.4-0.5-0.7-0.9-0.8
		c0.1-0.1,0.2-0.2,0.3-0.3c0.6-0.1,1.2-0.2,1.8-0.2c0.3,0,0.6-0.1,0.8-0.1c2.8-0.3,5.6-0.6,8.5-0.7c0.7,0,1.5-0.1,2.2-0.1
		c2.1-0.1,4.1-0.1,6.2-0.1c5.5,0,10.9,0.3,16.1,0.8c1.9,0.2,3.9,0.4,5.8,0.7c0.1,0,0.3,0,0.4,0c0.1,0,0.3,0,0.4,0.1
		c1.1,0.1,2.1,0.3,3.2,0.5c0,0.1,0,0.1,0,0.2c0.2,0.9,0.4,1.9,0.5,2.9C423.6,183.7,423.6,184.7,423.4,185.7z"/>
	<path d="M418.6,184.4c0-0.1-3.9-7.7-12.5-9.4c-3.2-0.6-5.2,0-5.6,1.8c-0.4,1.8,1.1,4.3,2.8,4.6l-0.2,0.8c-2.1-0.5-3.9-3.4-3.4-5.6
		c0.2-1.1,1.3-3.5,6.6-2.4c9,1.8,13,9.7,13,9.8L418.6,184.4z"/>
	<path class="st13" d="M541.3,313.3l-25.9,6.3c0,0,31-68.3-39.2-114.3c-18.4-12.1-36.3-19-52.8-22.6c-1.3-0.3-2.7-0.6-4-0.8
		c-0.1,0-0.3-0.1-0.4-0.1c-0.1,0-0.3,0-0.4-0.1c-0.6-0.1-1.3-0.2-1.9-0.3c-9.4-1.6-18.2-2.2-26.2-2.1h0c-0.6,0-1.1,0-1.7,0
		c-2.9,0.1-5.7,0.2-8.3,0.4c-0.3,0-0.6,0-0.8,0.1c-0.5,0-1,0.1-1.4,0.1c-14.7,1.4-25.7,4.8-31.3,6.9c9.7-3.8,19.9-6.5,30.7-8
		c0.6-0.1,1.2-0.2,1.8-0.2c0.3,0,0.6-0.1,0.8-0.1c2.8-0.3,5.6-0.6,8.5-0.7c0.7,0,1.5-0.1,2.2-0.1c2.1-0.1,4.1-0.1,6.2-0.1
		c5.5,0,10.9,0.3,16.1,0.8c1.9,0.2,3.9,0.4,5.8,0.7c0.1,0,0.3,0,0.4,0c0.1,0,0.3,0,0.4,0.1c1.1,0.1,2.1,0.3,3.2,0.5
		c58.6,9.7,90.6,49.4,90.6,49.4C522.4,238.4,547.2,275.7,541.3,313.3z"/>
	<path d="M402.3,413.9c-42.9,0-83.7-15.5-109.2-41.5c-10.7-10.9-18.5-23.3-23.2-36.9c0,0,0-0.1,0-0.2c-0.2-0.4-0.3-0.9-0.4-1.3
		l-0.2-0.7c-3-9.4-4.6-19.5-4.6-29.8c0-5.3,0.4-10.7,1.1-16c4.1-30.8,19.9-59.1,44.6-79.6c9.8-8.1,20.7-14.8,32.6-19.9
		c0,0,1.3-0.6,3.6-1.4c16-6.3,33.1-9.5,50.8-9.5c50.3,0,85.6,23.5,102.2,37.4c9.4,8,14.5,14.1,14.5,14.2c7.4,7.8,34,45.2,27.8,84.6
		v0c-0.7,4.2-1.7,8.3-3,12.2c-0.7,2-1.4,4-2.2,5.9C520.5,369.5,475.9,413.9,402.3,413.9z M397.2,178c-17.6,0-34.6,3.2-50.5,9.5
		c-2.3,0.9-3.5,1.4-3.5,1.4c-11.8,5-22.7,11.7-32.4,19.7c-24.5,20.3-40.2,48.4-44.3,79.1c-0.7,5.2-1,10.6-1,15.9
		c0,10.3,1.5,20.2,4.5,29.6l0.2,0.7c0.1,0.4,0.3,0.9,0.5,1.3l0,0.1c4.7,13.5,12.5,25.8,23,36.6c25.3,25.8,65.9,41.3,108.6,41.3
		c73.2,0,117.6-44.1,133.4-81.9c0.8-1.9,1.5-3.9,2.2-5.8c1.3-3.8,2.3-7.9,3-12.1c6.1-39-20.2-76.1-27.6-83.9
		c-0.1-0.1-5-6.2-14.4-14.1C482.4,201.3,447.2,178,397.2,178z"/>
	<g>
		<path class="st15" d="M574.9,312c-1.1,5.3-6.4,9.1-10.7,11.8c-14,9-30.6,14.8-47,16.8c-15.9,2-32.2,0.3-47.8-3.4
			c0,0-9.9-3.1-11.1-11.8c-0.1-0.9-0.2-1.8-0.1-2.8c0.1-1.8,0.6-3.9,1.6-6.2c4.2-9.7,13.7-16,22.4-21.2c8.9-5.4,18.7-9.5,29-10.7
			c0.5-0.1,1-0.1,1.5-0.2c12.3-1.1,24.5,2.1,35.9,6.6c0.8,0.3,1.6,0.6,2.4,1c5.4,2.2,16.6,5.9,21.6,12
			C574.6,306.3,575.5,308.9,574.9,312z"/>
		
			<linearGradient id="SVGID_00000140001683361362187130000004968613342415618439_" gradientUnits="userSpaceOnUse" x1="460.6588" y1="313.5686" x2="565.4755" y2="299.593">
			<stop  offset="8.478655e-02" style="stop-color:#6D9F38"/>
			<stop  offset="0.9529" style="stop-color:#487030"/>
		</linearGradient>
		<path style="fill:url(#SVGID_00000140001683361362187130000004968613342415618439_);" d="M572.7,304
			c-14.4,10.1-80.9,24.1-114.4,21.5c-0.1-0.9-0.2-1.8-0.1-2.8c7.8-7.3,31.6-28.2,51.1-30.5c11.9-1.4,26.8-2.1,39.4-1.2
			c0.8,0.3,1.6,0.6,2.4,1C556.5,294.2,567.8,297.9,572.7,304z"/>
		<path class="st17" d="M468.5,317.5c2.8-2.3,5.7-4.3,8.8-6.2c3-1.9,6.2-3.6,9.4-5.2c3.3-1.5,6.6-2.9,10-4c3.4-1,7-1.9,10.6-2.1
			c-3.5,0.7-6.9,1.8-10.3,3c-3.3,1.3-6.6,2.7-9.8,4.2c-3.2,1.5-6.4,3.2-9.5,5C474.7,313.9,471.6,315.7,468.5,317.5z"/>
		<path d="M503.5,341.9c-10.7,0-22.2-1.4-34.1-4.3c-0.1,0-10.2-3.2-11.5-12.1c-0.1-0.9-0.2-1.8-0.1-2.9c0.1-2,0.7-4.1,1.7-6.3
			c4.3-9.8,13.9-16.2,22.6-21.4c10-6,19.8-9.6,29.2-10.7c0.5-0.1,1-0.1,1.5-0.2c10.8-0.9,22.3,1.2,36.1,6.6c0.8,0.3,1.6,0.6,2.4,1
			c0.8,0.3,1.7,0.7,2.6,1c5.9,2.3,14.8,5.8,19.1,11.1c2.1,2.6,2.9,5.4,2.3,8.4l0,0c-1,5.2-6.1,9-10.8,12.1
			C550.8,333,534,339,517.3,341C512.8,341.6,508.2,341.9,503.5,341.9z M517.8,284.6c-1.7,0-3.3,0.1-4.9,0.2c-0.5,0-1,0.1-1.5,0.2
			c-9.3,1.1-19,4.6-28.9,10.6c-8.6,5.2-18.1,11.5-22.2,21.1c-0.9,2.1-1.5,4.2-1.6,6.1c-0.1,1,0,1.8,0.1,2.7
			c1.2,8.4,10.8,11.4,10.9,11.5c17.1,4.1,33.1,5.2,47.6,3.4c16.6-2.1,33.2-8,46.9-16.8c4.6-3,9.5-6.7,10.5-11.6v0
			c0.5-2.7-0.2-5.2-2.2-7.7c-4.1-5.1-12.9-8.6-18.7-10.8c-1-0.4-1.9-0.7-2.7-1.1c-0.8-0.3-1.6-0.6-2.4-1
			C537,286.8,527,284.6,517.8,284.6z"/>
	</g>
	<path class="st18" d="M467.2,140.2c-3.3,10-14.9,23.7-22.8,24.5c-6.9,0.7-17,3.6-21.4,7.2c-1,0.8-1.8,2.2-2.5,4.1
		c-0.3,0.9-0.6,2-0.7,3.2c-0.1,0.8-0.3,1.7-0.4,2.7c0,0.7-0.1,1.5-0.1,2.3c0,0.7,0,1.5,0,2.2v0.4c0,0.2,0,0.3-0.1,0.5
		c-0.1,0.3-0.3,0.6-0.6,0.7c-0.4,0.2-0.9,0.3-1.3,0.2c-0.1,0-0.2-0.1-0.3-0.1c-0.1-0.1-0.2-0.1-0.3-0.2c-0.4-0.2-0.9-0.5-1.3-0.7
		c-0.6-0.3-1.2-0.6-1.8-0.9c-0.5-0.2-1.1-0.5-1.6-0.7c-0.8-0.4-1.5-0.7-2.3-1c-0.5-0.2-1-0.4-1.5-0.6c-0.2-0.1-0.3-0.1-0.5-0.2
		c-0.2-0.1-0.5-0.2-0.7-0.2c-0.6-0.2-1.2-0.4-1.8-0.6c-0.8-0.2-1.6-0.5-2.4-0.7c-0.1,0-0.1,0-0.2,0c-1.8-0.5-3.5-0.9-5.3-1.2
		c-0.4-0.1-0.9-0.1-1.3-0.2c-0.3,0-0.7-0.1-1-0.1c-0.6-0.1-1.2-0.1-1.9-0.2c-0.4,0-0.8,0-1.2,0c-0.5,0-0.9,0-1.4,0h-0.4
		c-0.4,0-0.9,0-1.3,0c-2.9,0.1-5.8,0.7-8.4,1.5c-0.1,0-0.2,0-0.3,0c-0.1-0.1-0.2-0.2-0.2-0.3c0,0-0.1-0.7-0.3-1.7
		c-0.1-0.4-0.2-0.8-0.3-1.2c-0.1-0.4-0.2-0.8-0.3-1.2c-1.4-5-4.8-12.9-11.2-12.9c-6.2,0-8.2-0.6-9.8-1.1c-0.9-0.3-1.6-0.5-2.9-0.5
		c-3.7,0-14.5-13.3-15.7-14.8c-0.1-0.1-0.1-0.3,0-0.4c0.1-0.1,0.2-0.2,0.4-0.2c0.1,0,7.9,0,13.7-2.8c2.2-1.1,7.3-0.8,12.8,0.7
		c18,4.8,23.4,15.8,25.1,21.5c0.7-6.3,3-24.5,7.2-30.9c0.2-0.3,0.4-0.6,0.6-0.9c0.1-0.2,0.3-0.4,0.5-0.6c0.1-0.1,0.2-0.3,0.3-0.4
		c0.2-0.2,0.4-0.4,0.6-0.6c0.2-0.2,0.4-0.4,0.6-0.6c0.2-0.1,0.3-0.3,0.5-0.4c0,0,0.1,0,0.1-0.1c0.2-0.1,0.4-0.2,0.6-0.3
		c0.2-0.1,0.3-0.2,0.5-0.2c0.1,0,0.2-0.1,0.2-0.1c0.2-0.1,0.4-0.1,0.5-0.1c0,0,0.1,0,0.2,0c0.2,0,0.4,0,0.6,0c0.6,0,1.1,0.1,1.6,0.3
		c0.5,0.2,0.9,0.5,1.2,0.8c0.4,0.3,0.6,0.7,0.9,1.2c0.5,0.9,0.8,1.9,0.8,3.1c0,0.2,0,0.4,0,0.6c0,0.5-0.1,0.9-0.2,1.4
		c-1.2,4.5-1.5,22.5-1.6,31.3c3.3-4.3,9.4-6.8,15.5-9.2c5.8-2.3,11.3-4.5,13.2-7.9c2.5-4.4,6.6-6.4,9.6-7.4c3.3-1,7.1-1.2,9.9-0.5
		c0.4,0.1,0.8,0.1,1.2,0.1c4.4,0,9.8-5.6,10.1-5.8c0.1-0.1,0.1-0.1,0.2-0.1c0,0,0.1,0,0.1,0c0.1,0,0.2,0,0.3,0.1
		C467.3,139.9,467.3,140.1,467.2,140.2z"/>
	<path class="st19" d="M466.9,140c-3.9,12-16,23.7-22.5,24.3c-6.5,0.6-16.9,3.5-21.6,7.2c-2.9,2.3-3.7,8.4-3.8,12.6
		c-4-6.6-10.6-9-10.6-9c9.8-9,20.5-9.9,28.7-11.2c6-1,7.9-11.9,8.5-17.6c3.6-1.1,7.3-1.1,9.7-0.5C460,147.1,466.5,140.4,466.9,140z"
		/>
	<path class="st19" d="M390.3,180.4c0-0.1,0.1-0.3,0.1-0.4c0-0.1,0.1-0.3,0.1-0.4c0.5-1.7,0.8-3.9,1-6.3c0.1-0.9,0.1-1.8,0.1-2.7
		c0-0.7,0-1.4,0-2.1c0,0.4-0.1,0.8-0.1,1c-2.2-13.6-15-20.9-25.3-23.6l0.1,0.4l0.8,6.3c0,0,3.8-1.4,13,5.8
		c6.7,5.2,8.5,15.9,8.9,21.3c0,0.1,0,0.3,0,0.4c0,0.1,0,0.3,0,0.4L390.3,180.4z"/>
	<path class="st20" d="M407.4,132.8c0.4,0.3,0.6,0.7,0.9,1.2C408,133.5,407.7,133.1,407.4,132.8z"/>
	<path d="M467.2,139.7c-0.1-0.1-0.2-0.1-0.3-0.1c0,0-0.1,0-0.1,0c-0.1,0-0.1,0-0.2,0.1c-0.3,0.3-5.7,5.8-10.1,5.8
		c-0.4,0-0.8,0-1.2-0.1c-2.8-0.7-6.6-0.6-9.9,0.5c-3,0.9-7.1,2.9-9.6,7.4c-1.9,3.5-7.4,5.6-13.2,7.9c-6,2.4-12.2,4.9-15.5,9.2
		c0.1-8.8,0.5-26.8,1.6-31.3c0.1-0.5,0.2-0.9,0.2-1.4c0-0.2,0-0.4,0-0.6c0-1.2-0.3-2.2-0.8-3.1c-0.3-0.5-0.6-0.8-0.9-1.2
		c-0.4-0.3-0.8-0.6-1.2-0.8c-0.5-0.2-1.1-0.3-1.6-0.3c-0.2,0-0.4,0-0.6,0c-0.1,0-0.1,0-0.2,0c-0.2,0-0.4,0.1-0.5,0.1
		c-0.1,0-0.2,0-0.2,0.1c-0.2,0-0.3,0.1-0.5,0.2c-0.2,0.1-0.4,0.2-0.6,0.3c0,0-0.1,0.1-0.1,0.1c-0.2,0.1-0.3,0.2-0.5,0.4
		c-0.2,0.2-0.4,0.3-0.6,0.6c-0.2,0.2-0.4,0.4-0.6,0.6c-0.1,0.1-0.2,0.2-0.3,0.4c-0.2,0.2-0.3,0.4-0.5,0.6c-0.2,0.3-0.4,0.6-0.6,0.9
		c-4.1,6.5-6.5,24.6-7.2,30.9c-1.6-5.7-7.1-16.7-25.1-21.5c-5.4-1.4-10.6-1.7-12.8-0.7c-5.8,2.8-13.6,2.8-13.7,2.8
		c-0.2,0-0.3,0.1-0.4,0.2c-0.1,0.1,0,0.3,0,0.4c1.2,1.5,12,14.8,15.7,14.8c1.3,0,2,0.2,2.9,0.5c1.5,0.5,3.6,1.1,9.8,1.1
		c6.4,0,9.8,7.9,11.2,12.9c0.1,0.4,0.2,0.8,0.3,1.2c0.1,0.4,0.2,0.8,0.3,1.2c0.2,1,0.3,1.7,0.3,1.7c0,0.1,0.1,0.2,0.2,0.3
		c0.1,0.1,0.2,0.1,0.3,0c2.6-0.8,5.4-1.4,8.4-1.5c0.4,0,0.9,0,1.3,0h0.9c0.3,0,0.6,0,0.8,0c0.4,0,0.8,0,1.2,0c0.6,0,1.2,0.1,1.9,0.2
		c0.3,0,0.7,0.1,1,0.1c0.4,0,0.7,0.1,1.1,0.1c0.1,0,0.2,0,0.3,0c1.8,0.3,3.5,0.7,5.3,1.2c0.1,0,0.1,0,0.2,0c0.8,0.2,1.6,0.5,2.4,0.7
		c0.6,0.2,1.2,0.4,1.8,0.6c0.2,0.1,0.5,0.2,0.7,0.2c0.2,0.1,0.3,0.1,0.5,0.2l1.5,0.6c0.8,0.3,1.6,0.6,2.3,1c0.5,0.2,1.1,0.5,1.6,0.7
		c0.6,0.3,1.2,0.6,1.8,0.9c0.4,0.2,0.9,0.5,1.3,0.7c0.1,0,0.2,0.1,0.3,0.2c0.1,0.1,0.2,0.1,0.3,0.1c0.4,0.1,0.9,0.1,1.3-0.2
		c0.3-0.2,0.5-0.4,0.6-0.7c0-0.2,0.1-0.3,0.1-0.5v-0.4c0-0.7,0-1.5,0-2.2c0-0.8,0.1-1.6,0.1-2.3c0.1-1,0.2-1.8,0.4-2.7
		c0.2-1.2,0.5-2.2,0.7-3.2c0.6-1.9,1.4-3.4,2.5-4.1c4.4-3.5,14.5-6.5,21.4-7.2c7.9-0.8,19.6-14.5,22.8-24.5
		C467.3,140.1,467.3,139.9,467.2,139.7z M444.3,163.9c-7,0.7-17.3,3.7-21.8,7.3c-1.2,1-2.1,2.6-2.7,4.5c-0.3,1.1-0.6,2.2-0.8,3.3
		c-0.1,0.9-0.3,1.8-0.3,2.6c-0.1,0.6-0.1,1.3-0.1,1.9c0,0.2,0,0.4,0,0.5c0,1,0,2,0,2.7c0,0.4-0.5,0.7-0.9,0.5
		c-4-2.2-15.1-7.8-27-7.8h-0.1c-0.5,0-1.1,0-1.6,0c0,0,0,0,0,0c-2.8,0.1-5.6,0.6-8.1,1.4c0-0.3-0.1-0.7-0.2-1.2
		c-0.1-0.4-0.2-0.8-0.3-1.2c-0.1-0.5-0.3-1.1-0.5-1.7c-1.6-5.3-5-13.1-11.9-13.1c-6.1,0-8.1-0.6-9.5-1c-0.9-0.3-1.7-0.5-3.1-0.5
		c-2.7,0-11-9.4-14.6-13.8c2.2-0.1,8.3-0.5,13.2-2.9c2-1,7-0.7,12.2,0.7c0,0,0.1,0,0.1,0c20.4,5.5,24.2,19.1,24.8,23.2l0.1,0.5
		c0,0.2,0.1,0.4,0.1,0.6c0.1,0.7,0.1,1.5,0.2,2.3c0,0.1,0,0.2,0.1,0.3c0.1,0.1,0.2,0.1,0.3,0.1c0.2,0,0.4-0.2,0.4-0.4
		c0-0.9-0.1-1.7-0.2-2.4c0-0.2,0-0.4-0.1-0.6c0,0,0-0.1,0-0.1l0-0.3c0-0.2,0-0.5,0.1-0.9c0.4-4.1,2.7-25.1,7.2-32.1
		c0.2-0.3,0.3-0.5,0.5-0.8c2-2.7,4.2-3.8,6.1-2.9c1.8,0.8,2.7,2.9,2.3,5.3c0,0.3-0.1,0.6-0.2,0.9c-1.2,4.8-1.6,24.5-1.7,32.7v0.3
		c0,1.6,0,2.5,0,2.5c0,0.2,0.2,0.4,0.4,0.4c0.2,0,0.4-0.2,0.4-0.4c0,0,0-0.9,0-2.3v-0.4c2.9-4.7,9.4-7.3,15.8-9.8
		c5.9-2.3,11.5-4.6,13.6-8.3c2.3-4.1,6.1-6,8.9-6.9c0.1,0,0.1,0,0.2-0.1c3.8-1.2,7.4-1,9.5-0.5c3.8,1,8.5-2.7,10.8-4.7
		C461.6,152.6,450.5,163.3,444.3,163.9z"/>
	<path class="st21" d="M408.2,138c-0.2,0.1-0.4,0.1-0.5,0.1c-2.1,0.5-4.3-0.2-6.2-1.2c-0.6-0.4-1.3-0.8-1.8-1.3
		c2-2.7,4.2-3.8,6.1-2.9C407.6,133.5,408.5,135.6,408.2,138z"/>
	<path d="M388.1,179.6c-0.1-4.2-1-8.5-2.6-12.4c-1.6-3.9-4.1-7.6-7.4-10.3c-3.3-2.7-7.6-4.1-11.9-4.3c-2.1-0.1-4.3,0.3-6.5,0.3
		c-2.2,0-4.4-0.4-6.4-1.3c2,0.8,4.2,1.1,6.4,1.1c2.2,0,4.3-0.5,6.5-0.5c4.4,0,8.8,1.4,12.4,4c3.5,2.7,6.2,6.4,8,10.4
		c1.8,4,2.9,8.4,3.1,12.8L388.1,179.6z"/>
	<path d="M366.8,152.6c0,0-0.2-4.8-0.8-6.6l0.4-0.1c0.6,1.9,0.8,6.6,0.8,6.8L366.8,152.6z"/>
	<path d="M426.9,165.7l-0.2-0.4c7.2-3.1,9.8-12.7,9.8-12.8l0.4,0.1C436.9,152.7,434.3,162.6,426.9,165.7z"/>
	<path d="M408.4,175.3l-0.3-0.3c10.4-9,18.3-9.8,24.1-10.4c2.6-0.3,4.6-0.5,6.2-1.3c5.2-2.8,6.8-16.8,6.9-17l0.4,0
		c-0.1,0.6-1.7,14.4-7.1,17.3c-1.7,0.9-3.8,1.1-6.4,1.4C426.5,165.6,418.7,166.4,408.4,175.3z"/>
</g>
</svg>
